<svg id="visual" viewBox="0 0 900 600" width="900" height="600" xmlns="http://www.w3.org/2000/svg" xmlns:xlink="http://www.w3.org/1999/xlink" version="1.1"><rect x="0" y="0" width="900" height="600" fill="#160040"></rect><path d="M0 350L129 285L257 315L386 269L514 297L643 326L771 295L900 300L900 601L771 601L643 601L514 601L386 601L257 601L129 601L0 601Z" fill="#4c0070"></path><path d="M0 400L129 373L257 403L386 387L514 392L643 430L771 336L900 362L900 601L771 601L643 601L514 601L386 601L257 601L129 601L0 601Z" fill="#570077"></path><path d="M0 465L129 423L257 410L386 473L514 432L643 387L771 443L900 432L900 601L771 601L643 601L514 601L386 601L257 601L129 601L0 601Z" fill="#62017e"></path><path d="M0 435L129 520L257 451L386 460L514 454L643 495L771 495L900 513L900 601L771 601L643 601L514 601L386 601L257 601L129 601L0 601Z" fill="#6d0185"></path><path d="M0 552L129 514L257 546L386 563L514 526L643 560L771 529L900 561L900 601L771 601L643 601L514 601L386 601L257 601L129 601L0 601Z" fill="#79018c"></path></svg>