<?xml version="1.0" encoding="utf-8"?>
<!-- Generator: Adobe Illustrator 16.0.0, SVG Export Plug-In . SVG Version: 6.00 Build 0)  -->
<!DOCTYPE svg PUBLIC "-//W3C//DTD SVG 1.0//EN" "http://www.w3.org/TR/2001/REC-SVG-20010904/DTD/svg10.dtd">
<svg version="1.0" id="Layer_1" xmlns="http://www.w3.org/2000/svg" xmlns:xlink="http://www.w3.org/1999/xlink" x="0px" y="0px"
	 width="100px" height="100px" viewBox="0 0 100 100" enable-background="new 0 0 100 100" xml:space="preserve">
<rect x="83.333" y="20" width="6.667" height="23.333"/>
<rect x="70" y="10" width="6.667" height="33.333"/>
<rect x="56.667" y="30" width="6.666" height="13.333"/>
<path d="M50,50V10c-22.091,0-40,17.909-40,40c0,22.09,17.909,40,40,40c22.09,0,40-17.91,40-40H50z M43.333,17.335v34.618
	L24.206,71.081c-4.707-5.749-7.539-13.09-7.539-21.081C16.667,33.903,28.138,20.435,43.333,17.335z M50,83.333
	c-7.993,0-15.332-2.832-21.081-7.539l19.127-19.127h34.616C79.567,71.862,66.097,83.333,50,83.333z"/>
</svg>
